<mxfile host="app.diagrams.net" modified="2023-04-10T04:01:05.136Z" agent="Mozilla/5.0 (X11; Linux x86_64) AppleWebKit/537.36 (KHTML, like Gecko) Chrome/111.0.0.0 Safari/537.36" etag="2A8Yv4Ipi8sfJdl02ZN3" version="21.1.5" type="github">
  <diagram name="Page-1" id="_W4iAKK5p5PMeJgZvCfg">
    <mxGraphModel dx="1434" dy="649" grid="1" gridSize="10" guides="1" tooltips="1" connect="1" arrows="1" fold="1" page="1" pageScale="1" pageWidth="1100" pageHeight="850" math="0" shadow="0">
      <root>
        <mxCell id="0" />
        <mxCell id="1" parent="0" />
        <mxCell id="7RkE2miSFFRpyyD2uhTl-16" value="" style="rounded=0;whiteSpace=wrap;html=1;" vertex="1" parent="1">
          <mxGeometry x="60" y="360" width="390" height="410" as="geometry" />
        </mxCell>
        <mxCell id="7RkE2miSFFRpyyD2uhTl-3" value="" style="whiteSpace=wrap;html=1;aspect=fixed;" vertex="1" parent="1">
          <mxGeometry x="630" y="360" width="410" height="410" as="geometry" />
        </mxCell>
        <mxCell id="7RkE2miSFFRpyyD2uhTl-13" value="" style="rounded=1;whiteSpace=wrap;html=1;" vertex="1" parent="1">
          <mxGeometry x="670" y="427.5" width="150" height="90" as="geometry" />
        </mxCell>
        <mxCell id="7RkE2miSFFRpyyD2uhTl-8" value="" style="rounded=1;whiteSpace=wrap;html=1;" vertex="1" parent="1">
          <mxGeometry x="850" y="590" width="151.25" height="170" as="geometry" />
        </mxCell>
        <mxCell id="7RkE2miSFFRpyyD2uhTl-1" value="PostgreSQL" style="strokeWidth=2;html=1;shape=mxgraph.flowchart.database;whiteSpace=wrap;" vertex="1" parent="1">
          <mxGeometry x="870.63" y="600" width="110" height="150" as="geometry" />
        </mxCell>
        <mxCell id="7RkE2miSFFRpyyD2uhTl-2" value="" style="image;html=1;image=img/lib/clip_art/computers/Server_128x128.png" vertex="1" parent="1">
          <mxGeometry x="795" y="290" width="80" height="80" as="geometry" />
        </mxCell>
        <mxCell id="7RkE2miSFFRpyyD2uhTl-9" value="" style="rounded=1;whiteSpace=wrap;html=1;" vertex="1" parent="1">
          <mxGeometry x="670" y="590" width="150" height="170" as="geometry" />
        </mxCell>
        <mxCell id="7RkE2miSFFRpyyD2uhTl-5" value="Cloudflare Tunnel Node" style="ellipse;whiteSpace=wrap;html=1;" vertex="1" parent="1">
          <mxGeometry x="689.5" y="440" width="111" height="65" as="geometry" />
        </mxCell>
        <mxCell id="7RkE2miSFFRpyyD2uhTl-7" value="" style="shape=image;html=1;verticalAlign=top;verticalLabelPosition=bottom;labelBackgroundColor=#ffffff;imageAspect=0;aspect=fixed;image=https://cdn1.iconfinder.com/data/icons/social-media-2106/24/social_media_social_media_logo_docker-128.png" vertex="1" parent="1">
          <mxGeometry x="850" y="540" width="50" height="50" as="geometry" />
        </mxCell>
        <mxCell id="7RkE2miSFFRpyyD2uhTl-25" style="edgeStyle=orthogonalEdgeStyle;rounded=0;orthogonalLoop=1;jettySize=auto;html=1;exitX=0.5;exitY=0;exitDx=0;exitDy=0;" edge="1" parent="1" source="7RkE2miSFFRpyyD2uhTl-12" target="7RkE2miSFFRpyyD2uhTl-5">
          <mxGeometry relative="1" as="geometry" />
        </mxCell>
        <mxCell id="7RkE2miSFFRpyyD2uhTl-10" value="" style="shape=image;html=1;verticalAlign=top;verticalLabelPosition=bottom;labelBackgroundColor=#ffffff;imageAspect=0;aspect=fixed;image=https://cdn1.iconfinder.com/data/icons/social-media-2106/24/social_media_social_media_logo_docker-128.png" vertex="1" parent="1">
          <mxGeometry x="670" y="540" width="50" height="50" as="geometry" />
        </mxCell>
        <mxCell id="7RkE2miSFFRpyyD2uhTl-12" value="PostgREST" style="shape=parallelogram;perimeter=parallelogramPerimeter;whiteSpace=wrap;html=1;fixedSize=1;" vertex="1" parent="1">
          <mxGeometry x="685" y="645" width="120" height="60" as="geometry" />
        </mxCell>
        <mxCell id="7RkE2miSFFRpyyD2uhTl-14" value="" style="shape=image;html=1;verticalAlign=top;verticalLabelPosition=bottom;labelBackgroundColor=#ffffff;imageAspect=0;aspect=fixed;image=https://cdn1.iconfinder.com/data/icons/social-media-2106/24/social_media_social_media_logo_docker-128.png" vertex="1" parent="1">
          <mxGeometry x="670" y="377.5" width="50" height="50" as="geometry" />
        </mxCell>
        <mxCell id="7RkE2miSFFRpyyD2uhTl-17" value="" style="dashed=0;outlineConnect=0;html=1;align=center;labelPosition=center;verticalLabelPosition=bottom;verticalAlign=top;shape=mxgraph.weblogos.java" vertex="1" parent="1">
          <mxGeometry x="237.8" y="295" width="34.4" height="65" as="geometry" />
        </mxCell>
        <mxCell id="7RkE2miSFFRpyyD2uhTl-19" value="" style="rounded=0;whiteSpace=wrap;html=1;" vertex="1" parent="1">
          <mxGeometry x="377.5" y="80" width="330" height="240" as="geometry" />
        </mxCell>
        <mxCell id="7RkE2miSFFRpyyD2uhTl-20" value="" style="shape=image;verticalLabelPosition=bottom;labelBackgroundColor=default;verticalAlign=top;aspect=fixed;imageAspect=0;image=data:image/png,iVBORw0KGgoAAAANSUhEUgAAARMAAAC3CAMAAAAGjUrGAAAA3lBMVEX////zgCBAQEH6rkA7OzzydABKSks3Nzj6pyQmJig0NDXydwAoKCkrKywwMDE6OjtqamvW1tby8vKVlZXk5ORTU1SoqKjFxcXzewq0tLTr6+vd3d3U1NTzfBD6qjJzc3P+7tz+8uvzhjD3rH36zrX96t/4u5b728n1nmT+8+ZcXF2JiYm/v8BVVVX84dP+9/P0ijr5x6r1llX7umT93Lf6tlj8zJH3tYyurq4dHR+cnJx+fn5iYmP0kEj4vpz2pXH8yo37wnn6zLH96ND7vGv81qr82bD5ow4AAAQXFxl2ZYWBAAAHqElEQVR4nO2ZCVfaTBSGQ8hCQhIWUZFVFNxAXD6r4tpqF/v//9A3a2ZCAoJJO0Xuc05POeMw3PtytwmaBgAAAAAAAAAAAAAAAAAAAAAAAAAAAAAAAAAAAAAAAAAAAAAAAAAAAAAAAADAv0lvMB4Peqqt+Gc46+/vmUWCeb7fP1Ntj3oOL81iOxfSLppHh6ptUks/JwvCZdnrq7ZLHYPz4rQglOLjupaWJzNZERwr5oVq65RwNCNIWKg8q7ZPAY/1eZLkcvVL1Rb+dc5jtXXtRbl8J0qIKOuVPgdza0lYU9ap0A5md5wI5hq15L3FJMm1H1Vb+te4WChzSPaszZz/bssR7Km29U8yvnksmu3LJ1Qh+guHyacOlPE5veu16+az9ri4JLn2kWrT/xQ3Up9p15dIHdR6PunzlP0lkmWa4ud8bnCx4DSSSHtftfl/grM0kuTqN+iEs8+WQPtL1Y9p0Ch7/atQKHz5eqXakQxJUUzoJJsndDqFb7uqfcmIw1SaoBLbK+QZncJ/x6rdyYTFB/lETTTtqpMXFK5V+5MFBws8KZkJ7jrf8jKdL6odyoBUmpgDTSvko6LkV78JvaTQBE/2u1OaIFS7lJLe+CmFJkUUEq+daUlWOn3G+22zmEISc6wlxklnZQvt4Xn8d8/lJKHPCeKa5Au7al37KEepRno01OcG9KDrWPLk8yuZPb1cqhhp182b8Kzv8UgpvCr07YP0ZlWROqNYL87CRDw+yQ336gu68HQIXJT/lLn2YWZ9/+cHBwdPiIuLl5eXfr9/SBkjBpgeIvEW3Dvefb26+vHjOw+UlfuV42hG4hTHaU8+ZpHS+ZmFnX+Rw5nlde8I8fz8vI+4QdCwuUDgqGFxM44pd7b7+nr188f1VzHnf1PhWArO5xRPmbqoLtHyYh5JqXF2nWfFRKon+Y469z7CONVNmEpnDvhp14WEXowKymrdetI9WOPQs47ziYogTVbrSUoWirAfuxIGe547u4q9XIp0z6Q59Sd01PFMSVZMkwzKCdbkQONPYj9B7qR7ABtqcpF801nNGpuNJsX4E7Zo7qh2cykyyh1N+zknTPLfVbu5FGdmFqBrMb75zeLXZ/oFDAAAAADWmmqtttjGRnPBjStOY6Pk+L6zuSWWXMvS72IbK/e+hzfeiqUd3bJKTfLyFr9kit2h15jycCQf0LUE+lCsnSSZFTiIyIrN3/uw0RJGGdKhzJTUbExsHWO4/jZfc3Td3ZjeeO+U6MbADk3aCXTdp4ZsubruMU02XLrTsANP0rZMDyDY9+GasZlg1jY6WQ8ikjrsrehY76TKFiu+OFP3stGkHIgjJzwC0Kfb05pYrrSRq7fjRjTxuSa22BsIj8uGWC7dh2uJmjzgvUYkgjzJe9tiixFN/Ew0GWJJbJQRAbZhwgIgQZMydtP20EYiCnN+nia+7wc4MOzQMayJ4VMm3XAtSZOaE//iPWKB5/n49IClOtGE5BniLQtNmhNs/LCBzt4kgU2X45qM8Ed7dyhit3VDfIFzNPFrtdp2mVi8o0n+VxuUqrQWN4xFGs8wAtLEHlar1RpOTeOBLmJNglb8gI9zj4RwWcZv2qWSQ5MirskpEsJnvklf4BxNaH28DYTSxP/TKQtmaIJjYhP9c6qRNWYVtsami9lr4kkWN8vdbplGZEyTqiMl9wj56dKN72pC8oWX3sU1wec6DT/8HG4ss4okIV3Emthb24RRYznvE6n5CcVUS9CkhWW4lf7MSuT7muAdASvJtMYamBLXIVkTy9BLXRLFhlgMNWkhs0usHpF6YgeEySh20PI0p74JTkwT3BlFYxQmva8JeWdEE9pP52qCnfZb5L8gHBBIUFsPDw8WqW1sXe47QRaaKImTBTTpogDBzdYStVRjiY5ijHRdXnyJJi6Nk99ZaELHIPa6sTMajSp8OapJQ64n26KejITHd0gHjyX0VD1xGuI1TZ35uYM/TT8ZDocnuMqGtwmqCZ1uwuDGmri3lRYhi3pCJsuw7/hu8HtW37Fw3xmJ18xSHD82ndItPdRB0mQHmWzw+WrRGntHGrFt0/+GfJnkzqmFi0w33Jt932l5ZD5BDa95YgvriSZVRuibTub0CjaqxCMaf6M++tKq97YU52Q+aaL5pIvfxrWco4n8Ueiqo8t4kiZYIHksYJpUstRE69LxFF12yBxbEZ7iiRExKdOlEzzSuZ4RkI08GzQsBVp2vZLsfHSOLcv+J2iiG/SjvDe6hHu9XiIpRk7ndYxpQjLLidx3wjl2W8uCTfkaI913OLznVXXpDhPed8jgwhFDfOS+I+4sszSZiohNtOSyP/tSwWOaaFuBVNwi950gG020Lrvu6tF78bQmyHqP34sN6VrRDJiohi86xAZfswNfavX4DhzTRLor0xJU8USN04Y4C5ldXBOSPZH7TtaaaJWug8LckR+YTIwQV5SzFt14uhN9/51Flh+kRrjhkvei3hHpjmXbsKfrKVoLoZrcozeHuVlzkAks+d6CwCEtuDFBjfeNVvmKJ95v+Flpgj+50qy+vwtvTHzOVq01M+mCAAAAAAAAAAAAAAAAAAAAAAAAAAAAAAAAAAAAAAAAAAAAAAAAAAAAAAAAAACk4H9iOqci0Mg3NAAAAABJRU5ErkJggg==;" vertex="1" parent="1">
          <mxGeometry x="490" y="20" width="85" height="56.56" as="geometry" />
        </mxCell>
        <mxCell id="7RkE2miSFFRpyyD2uhTl-21" value="spui.tylerturner.tech" style="ellipse;shape=cloud;whiteSpace=wrap;html=1;" vertex="1" parent="1">
          <mxGeometry x="454" y="140" width="177" height="120" as="geometry" />
        </mxCell>
        <mxCell id="7RkE2miSFFRpyyD2uhTl-23" style="edgeStyle=orthogonalEdgeStyle;rounded=0;orthogonalLoop=1;jettySize=auto;html=1;entryX=0.16;entryY=0.55;entryDx=0;entryDy=0;entryPerimeter=0;exitX=1;exitY=0.5;exitDx=0;exitDy=0;" edge="1" parent="1" source="7RkE2miSFFRpyyD2uhTl-22" target="7RkE2miSFFRpyyD2uhTl-21">
          <mxGeometry relative="1" as="geometry">
            <Array as="points">
              <mxPoint x="360" y="565" />
              <mxPoint x="360" y="206" />
            </Array>
          </mxGeometry>
        </mxCell>
        <mxCell id="7RkE2miSFFRpyyD2uhTl-22" value="HTTP request to spui.tylerturner.tech with correct authententication headers" style="rounded=1;whiteSpace=wrap;html=1;" vertex="1" parent="1">
          <mxGeometry x="174" y="455" width="162" height="220" as="geometry" />
        </mxCell>
        <mxCell id="7RkE2miSFFRpyyD2uhTl-26" style="edgeStyle=orthogonalEdgeStyle;rounded=0;orthogonalLoop=1;jettySize=auto;html=1;exitX=0;exitY=0.5;exitDx=0;exitDy=0;exitPerimeter=0;entryX=1;entryY=0.5;entryDx=0;entryDy=0;" edge="1" parent="1" source="7RkE2miSFFRpyyD2uhTl-1" target="7RkE2miSFFRpyyD2uhTl-12">
          <mxGeometry relative="1" as="geometry" />
        </mxCell>
        <mxCell id="7RkE2miSFFRpyyD2uhTl-24" style="edgeStyle=orthogonalEdgeStyle;rounded=0;orthogonalLoop=1;jettySize=auto;html=1;exitX=0.5;exitY=0;exitDx=0;exitDy=0;entryX=0.875;entryY=0.5;entryDx=0;entryDy=0;entryPerimeter=0;" edge="1" parent="1" source="7RkE2miSFFRpyyD2uhTl-5" target="7RkE2miSFFRpyyD2uhTl-21">
          <mxGeometry relative="1" as="geometry">
            <Array as="points">
              <mxPoint x="745" y="200" />
            </Array>
          </mxGeometry>
        </mxCell>
      </root>
    </mxGraphModel>
  </diagram>
</mxfile>
